<svg width="166" height="49" xmlns="http://www.w3.org/2000/svg" xmlns:xlink="http://www.w3.org/1999/xlink" overflow="hidden"><defs><path d="M0.014 0.03 93.974 0.03 93.974 48.32 0.015 48.32Z" id="a" fill="#FFFFFF"/></defs><g fill="none" fill-rule="evenodd"><path d="M0 14.13 0 14.253 27.95 27.383 56 14.209 56 14.176 27.95 1 0 14.13ZM10.077 14.192 27.95 5.795 45.827 14.192 27.95 22.588 10.076 14.192ZM27.95 32.483 0 19.55 0 24.334 27.95 37.298 56 24.289 56 19.505 27.95 32.483ZM27.95 42.186 0 29.25 0 34.033 27.95 47 56 33.99 56 29.206 27.95 42.186Z" fill="#FFFFFF"/><g transform="translate(72 0)"><mask id="b" fill="#FFFFFF"><use width="100%" height="100%" xlink:href="#a"></use></mask><path d="M87.56 24.152C87.5765 22.0868 86.8035 20.0932 85.399 18.579 84.7384 17.8708 83.9428 17.302 83.059 16.906 82.1629 16.5041 81.1911 16.2991 80.209 16.305 79.199 16.305 78.248 16.505 77.357 16.906 76.4732 17.3019 75.6776 17.8708 75.017 18.579 73.6128 20.0937 72.8402 22.0876 72.857 24.153 72.8404 26.2181 73.6131 28.2115 75.017 29.726 75.6777 30.4339 76.4733 31.0024 77.357 31.398 78.2533 31.8004 79.2255 32.0057 80.208 32 81.218 32 82.168 31.8 83.06 31.398 83.9433 31.0022 84.7386 30.4337 85.399 29.726 86.8033 28.2114 87.576 26.2174 87.559 24.152ZM93.975 24.152C93.975 26.084 93.618 27.875 92.905 29.525 92.2204 31.1336 91.2208 32.5888 89.965 33.805 88.718 35.01 87.255 35.961 85.577 36.659 83.899 37.358 82.109 37.707 80.208 37.707 78.308 37.707 76.525 37.358 74.862 36.659 73.2374 35.9859 71.7558 35.0099 70.496 33.783 69.243 32.556 68.2439 31.0942 67.556 29.481 66.843 27.831 66.486 26.055 66.486 24.152 66.486 22.279 66.85 20.518 67.578 18.868 68.2825 17.2518 69.2877 15.7841 70.54 14.543 71.7951 13.3044 73.2781 12.3203 74.907 11.645 76.5857 10.9434 78.3886 10.5869 80.208 10.597 82.109 10.597 83.898 10.947 85.577 11.645 87.255 12.343 88.717 13.295 89.965 14.499 91.213 15.703 92.193 17.137 92.905 18.801 93.618 20.466 93.975 22.25 93.975 24.152ZM64.258 36.905C63.7083 37.1581 63.1335 37.3525 62.543 37.485 61.905 37.633 61.243 37.707 60.561 37.707 59.6344 37.7103 58.7119 37.5827 57.821 37.328 56.9756 37.092 56.1922 36.6735 55.526 36.102 54.873 35.537 54.353 34.802 53.966 33.895 53.581 32.988 53.388 31.895 53.388 30.618L53.388 0.029 59.937 0.029 59.937 29.503C59.937 30.573 60.152 31.309 60.583 31.71 61.013 32.111 61.526 32.312 62.12 32.312 62.862 32.312 63.575 32.089 64.258 31.643L64.258 36.905ZM50.492 11.22 38.908 41.854C38.047 44.143 36.918 45.793 35.522 46.804 34.126 47.814 32.462 48.319 30.532 48.319 30.235 48.319 29.909 48.297 29.552 48.253 29.206 48.2104 28.8635 48.1432 28.527 48.052L26.389 42.077C26.8896 42.3131 27.4121 42.4996 27.949 42.634 28.483 42.768 28.988 42.835 29.463 42.835 30.473 42.835 31.393 42.605 32.225 42.144 33.057 41.684 33.695 40.829 34.141 39.58L35.032 36.994 25.097 11.221 32.092 11.221 38.017 27.809 43.587 11.221 50.492 11.221ZM23.538 7.342 6.786 7.342 6.786 15.636 23.315 15.636 23.315 21.254 6.785 21.254 6.785 37.038 0.015 37.038 0.015 1.412 23.539 1.412 23.539 7.342Z" fill="#FFFFFF" mask="url(#b)"/></g></g></svg>